<?xml version="1.0" standalone="no"?>
<!DOCTYPE svg PUBLIC "-//W3C//DTD SVG 20010904//EN"
 "http://www.w3.org/TR/2001/REC-SVG-20010904/DTD/svg10.dtd">
<svg version="1.0" xmlns="http://www.w3.org/2000/svg"
 width="1024.000000pt" height="1024.000000pt" viewBox="0 0 1024.000000 1024.000000"
 preserveAspectRatio="xMidYMid meet">
<metadata>
Created by potrace 1.16, written by Peter Selinger 2001-2019
</metadata>
<g transform="translate(0.000000,1024.000000) scale(0.100000,-0.100000)"
fill="#000000" stroke="none">
<path d="M0 5120 l0 -5120 5120 0 5120 0 0 5120 0 5120 -5120 0 -5120 0 0
-5120z m5206 1435 c121 -60 142 -213 40 -302 -35 -31 -36 -35 -36 -101 0 -38
3 -84 6 -101 6 -28 10 -31 45 -31 l39 0 0 -70 0 -70 -180 0 -180 0 0 70 0 70
40 0 40 0 0 98 0 98 -35 34 c-66 64 -83 145 -46 218 53 103 163 139 267 87z
m-1365 5 c165 -31 309 -171 339 -330 6 -30 10 -225 10 -445 0 -333 -2 -394
-15 -405 -23 -19 -434 -8 -503 14 -29 9 -50 21 -47 26 3 6 -1 7 -9 4 -35 -13
-207 119 -191 147 5 7 4 10 -3 5 -6 -3 -14 0 -19 8 -7 12 -62 15 -343 18 -317
3 -377 8 -364 29 3 5 -1 6 -9 3 -8 -3 -31 5 -51 16 -40 24 -49 37 -13 20 21
-11 21 -10 3 4 -10 9 -23 13 -27 10 -19 -11 -99 79 -121 137 l-23 59 -55 1
c-72 0 -143 9 -150 17 -3 4 -11 7 -17 8 -30 2 -34 5 -27 16 4 6 3 8 -4 5 -18
-12 -92 36 -133 84 -21 25 -47 68 -57 95 l-20 49 -112 6 c-90 5 -114 9 -122
23 -5 9 -14 16 -21 16 -7 0 -6 -4 3 -10 27 -18 0 -10 -43 11 -70 36 -141 103
-175 166 -35 66 -56 146 -47 180 l5 23 1154 0 c730 0 1173 -4 1207 -10z m4925
-5 c9 -22 -6 -106 -17 -100 -5 3 -6 0 -3 -8 15 -39 -117 -220 -147 -202 -8 5
-10 4 -5 -3 8 -14 -70 -56 -86 -46 -6 4 -8 3 -4 -4 9 -15 -80 -32 -169 -32
l-75 0 -16 -37 c-10 -21 -18 -42 -18 -48 -1 -5 -6 -10 -13 -10 -6 0 -15 -4
-20 -9 -5 -5 -3 -6 5 -2 19 11 14 -2 -14 -39 -17 -23 -31 -32 -41 -28 -10 4
-14 2 -9 -5 9 -16 -50 -57 -114 -77 -45 -15 -109 -22 -213 -25 -4 0 -12 -12
-18 -27 -17 -46 -60 -102 -74 -97 -7 3 -15 -2 -19 -12 -5 -14 -4 -15 9 -4 8 7
15 8 15 2 0 -17 -27 -33 -46 -26 -13 4 -15 3 -6 -3 18 -13 -19 -45 -93 -80
l-60 -28 -338 -3 -338 -3 -67 -68 c-49 -49 -89 -79 -146 -107 l-80 -39 -241
-3 -242 -4 -6 108 c-9 133 -8 418 2 629 8 184 19 218 105 312 56 62 113 98
194 124 54 17 123 18 1230 18 1038 1 1173 -1 1178 -14z m-3856 -570 l0 -35
-175 0 -174 0 -14 -47 c-8 -27 -31 -90 -51 -142 -20 -51 -36 -100 -36 -110 0
-15 53 -16 665 -13 l665 2 -6 25 c-3 14 -28 77 -55 141 -27 63 -49 122 -49
130 0 16 -2 16 -212 14 l-148 -1 0 36 0 35 201 -2 202 -3 78 -195 c70 -173 79
-202 79 -259 0 -76 -27 -142 -66 -159 -18 -9 -211 -12 -699 -12 l-675 0 -32
29 c-31 28 -33 34 -38 113 -5 70 -2 93 18 148 13 36 37 104 54 153 18 53 34
85 40 80 7 -4 8 -1 3 6 -4 7 0 32 10 57 l17 44 199 0 199 0 0 -35z m-3222
-848 c16 -10 16 -99 0 -115 -9 -9 -74 -12 -231 -12 -181 0 -221 -3 -233 -15
-9 -8 -11 -15 -5 -15 7 0 11 -57 11 -175 l0 -175 -100 0 -100 0 2 213 3 212
45 5 c43 5 45 6 43 35 -2 17 -1 35 1 41 5 13 543 14 564 1z m667 -52 c14 -34
22 -69 19 -80 -4 -11 -3 -17 1 -13 14 13 35 -13 35 -43 0 -16 5 -29 10 -29 15
0 30 -43 19 -54 -14 -15 -11 -39 5 -33 7 3 19 0 25 -6 14 -14 15 -47 1 -47 -5
0 -10 -4 -10 -10 0 -5 6 -10 14 -10 8 0 22 -10 31 -22 14 -21 14 -24 0 -34
-20 -15 -19 -23 3 -17 12 3 22 -4 30 -22 l12 -26 -87 3 -88 3 -38 105 c-36 99
-64 148 -73 125 -13 -33 -22 -39 -38 -26 -13 11 -16 11 -16 -2 0 -8 7 -17 15
-21 12 -4 13 -10 3 -30 -9 -20 -16 -24 -35 -20 -17 5 -23 2 -23 -10 0 -9 8
-16 20 -16 24 0 24 -3 3 -62 l-17 -48 -83 0 c-61 0 -83 3 -83 13 0 16 68 179
81 192 5 5 9 18 9 30 0 12 4 25 9 31 5 5 28 56 51 114 23 58 47 111 52 118 7
8 30 12 65 10 l54 -3 24 -60z m584 39 c12 -15 21 -32 21 -39 0 -6 11 -22 25
-35 14 -13 25 -30 25 -37 0 -8 6 -16 14 -19 7 -3 22 -21 32 -41 11 -20 29 -47
42 -60 13 -13 20 -28 17 -33 -3 -6 1 -13 10 -16 9 -4 24 -23 35 -44 20 -39 39
-53 57 -42 10 7 78 93 239 305 l67 87 47 0 c25 0 51 -5 58 -12 9 -9 12 -81 12
-264 l0 -253 -32 10 c-18 5 -54 9 -80 9 l-48 0 0 80 c0 73 -2 80 -19 80 -11 0
-23 -5 -26 -10 -3 -6 -17 -7 -31 -4 -27 7 -29 2 -12 -26 10 -16 9 -23 -12 -45
-20 -21 -25 -23 -32 -10 -13 22 -38 19 -38 -5 0 -12 7 -20 16 -20 9 0 14 -7
12 -17 -3 -16 -17 -18 -123 -18 l-120 0 -10 29 c-5 16 -22 42 -37 57 -16 15
-28 35 -28 43 0 18 -45 40 -61 30 -5 -3 -9 -42 -9 -87 l0 -82 -80 3 -80 4 0
242 c0 175 3 245 12 254 7 7 36 12 64 12 45 0 56 -4 73 -26z m1507 19 c18 -7
19 -104 2 -121 -9 -9 -70 -12 -214 -12 l-202 0 -7 -51 c-7 -47 -9 -50 -31 -45
-17 5 -24 2 -24 -8 0 -8 10 -16 23 -18 17 -2 23 -11 25 -38 2 -19 7 -39 12
-43 4 -5 87 -8 185 -7 121 0 182 -3 191 -11 8 -7 14 -30 14 -55 0 -68 -13 -72
-213 -65 l-167 6 0 -29 0 -29 -72 7 c-40 4 -88 9 -105 13 l-33 5 0 247 c0 136
3 250 6 254 8 7 591 8 610 0z m351 -128 c1 -71 2 -149 2 -172 l1 -43 190 0
190 0 0 163 c0 113 4 167 12 175 7 7 37 12 68 12 31 0 61 -5 68 -12 9 -9 12
-81 12 -263 l0 -250 -80 -2 -80 -2 0 27 0 27 -190 0 -191 0 6 -24 c6 -24 6
-24 -56 -17 -34 3 -73 6 -85 6 l-24 0 0 243 c0 180 3 246 12 255 8 8 36 12 78
10 l65 -3 2 -130z m1301 68 c3 -60 2 -63 -22 -69 -14 -3 -114 -5 -221 -3
l-195 4 0 -52 c0 -41 -4 -53 -15 -53 -8 0 -15 -4 -15 -9 0 -5 7 -14 15 -21 17
-14 20 -50 5 -50 -15 0 -12 -30 3 -31 6 0 86 -1 177 -1 95 0 170 -5 178 -10
16 -14 16 -93 -1 -107 -9 -7 -72 -10 -180 -9 -148 1 -208 -6 -169 -19 6 -3 12
-14 12 -25 0 -19 -4 -20 -47 -14 -27 4 -69 9 -95 13 l-48 6 0 246 c0 182 3
250 12 259 9 9 85 12 308 10 l295 -3 3 -62z m514 56 c15 -8 19 -17 15 -38 -4
-20 -1 -30 15 -40 14 -9 19 -20 15 -38 -4 -19 2 -32 21 -48 23 -19 24 -25 13
-39 -11 -13 -11 -17 3 -22 25 -10 40 -43 26 -59 -9 -11 -6 -17 15 -31 22 -14
26 -23 21 -47 -5 -23 -2 -30 14 -34 22 -6 26 -33 8 -51 -9 -9 -7 -13 8 -18 20
-8 34 -23 34 -39 0 -6 -32 -9 -82 -7 l-83 3 -19 62 c-11 34 -23 69 -28 77 -4
8 -17 36 -28 63 -10 26 -23 47 -28 47 -16 0 -38 -42 -61 -117 -11 -40 -26 -75
-31 -78 -6 -3 -10 -17 -10 -30 0 -22 -3 -23 -80 -24 -83 -1 -90 3 -74 44 6 14
8 14 24 0 19 -17 50 -11 50 11 0 9 -11 14 -30 14 -16 0 -30 3 -30 8 0 9 60
160 94 236 14 32 26 67 26 77 0 10 9 23 20 29 13 7 20 21 20 40 0 16 7 36 16
44 18 19 95 22 126 5z m418 -4 c14 -17 6 -50 -10 -40 -5 3 -10 -1 -10 -11 0
-11 6 -15 20 -11 17 4 26 -5 50 -55 35 -70 37 -81 11 -73 -12 3 -21 0 -24 -9
-8 -21 9 -29 33 -16 17 9 22 7 30 -16 6 -15 12 -30 15 -34 2 -3 -6 -6 -18 -6
-13 1 -23 -6 -25 -18 -3 -14 0 -17 12 -12 9 3 22 8 29 11 8 4 18 -5 25 -20 16
-34 15 -35 -8 -35 -11 0 -20 -6 -20 -14 0 -23 22 -31 35 -13 10 14 12 13 23
-4 7 -11 21 -42 32 -69 l20 -50 -23 -1 c-12 -1 -53 -2 -90 -3 l-68 -1 -99 230
c-55 127 -99 238 -100 247 0 25 29 37 91 38 38 0 61 -5 69 -15z m624 -1 c9 -8
16 -17 16 -19 0 -3 -16 -38 -35 -79 -19 -41 -35 -79 -35 -83 0 -4 -4 -14 -9
-22 -8 -12 -12 -12 -26 3 -21 21 -40 16 -40 -10 0 -15 6 -19 27 -17 l28 2 -16
-37 c-9 -20 -23 -54 -31 -75 -14 -35 -17 -37 -33 -22 -19 17 -50 11 -50 -10 0
-16 25 -26 46 -18 13 5 15 2 9 -18 -4 -13 -11 -28 -15 -34 -4 -5 -10 -22 -13
-36 -6 -24 -10 -25 -64 -23 -32 1 -73 2 -90 3 l-33 1 16 43 c9 23 22 56 29 72
37 86 49 116 96 238 28 73 56 138 61 145 16 19 142 16 162 -4z m714 3 c17 -11
16 -101 -2 -116 -10 -9 -75 -11 -228 -9 l-215 3 5 -48 c4 -43 2 -49 -17 -54
-24 -6 -29 -33 -6 -33 19 0 21 -56 3 -63 -36 -12 17 -18 181 -19 l181 0 6 -27
c3 -14 7 -32 10 -39 2 -7 -1 -24 -6 -38 l-10 -26 -175 4 -175 3 5 -34 5 -34
-67 6 c-38 4 -78 7 -90 7 l-23 0 0 255 c0 229 2 255 17 264 21 11 582 9 601
-2z m302 -6 c30 -16 35 -24 32 -50 -2 -24 2 -31 16 -31 35 0 59 -51 30 -63 -7
-3 -1 -6 14 -6 16 -1 35 -11 48 -28 l21 -27 -20 -8 c-13 -4 -19 -13 -15 -23 7
-17 20 -20 29 -5 3 6 10 10 14 10 13 0 45 -53 44 -72 -1 -10 4 -18 12 -18 15
0 64 -64 92 -120 18 -35 31 -50 46 -50 4 0 7 110 7 245 0 231 1 245 19 255 27
14 114 13 129 -2 9 -9 12 -83 12 -270 l0 -258 -74 0 c-41 0 -77 -4 -80 -8 -2
-4 -38 -5 -78 -1 -40 4 -85 5 -99 2 -34 -6 -66 11 -75 39 -4 13 -20 39 -36 58
-16 19 -38 45 -48 58 -33 39 -40 27 -40 -68 l0 -90 -75 0 -75 0 0 58 c0 31 -1
151 -3 265 -2 176 0 209 13 217 25 16 103 11 140 -9z m-6913 -343 c16 -13 17
-90 1 -106 -7 -7 -20 -12 -30 -12 -13 0 -18 -8 -18 -30 l0 -30 -75 0 c-78 0
-81 2 -76 47 1 8 -19 13 -61 15 l-63 3 -3 49 c-2 27 -1 54 2 61 6 16 304 19
323 3z m577 -808 c29 -11 31 -17 12 -43 -12 -16 -19 -16 -59 -6 -34 8 -50 8
-67 -1 -32 -17 -20 -32 44 -51 32 -10 66 -25 77 -35 25 -22 25 -75 0 -105 -17
-22 -27 -24 -100 -24 -59 0 -84 4 -96 15 -13 14 -13 19 -2 34 13 17 18 18 64
6 58 -15 83 -9 83 19 0 16 -11 22 -54 31 -29 6 -63 20 -75 31 -37 34 -24 110
22 129 30 12 120 12 151 0z m157 -89 c5 -82 9 -97 29 -113 27 -22 40 -23 66
-4 16 12 20 30 24 113 l5 98 30 0 30 0 3 -90 c4 -139 -28 -185 -130 -185 -87
0 -127 60 -128 192 0 75 6 90 39 86 26 -3 26 -5 32 -97z m473 78 c28 -22 36
-75 14 -97 -9 -9 -7 -16 6 -31 12 -13 16 -31 14 -58 -4 -55 -46 -74 -153 -71
l-80 3 -3 138 -3 137 89 0 c75 0 93 -3 116 -21z m332 6 c12 -31 -15 -45 -87
-45 -67 0 -69 -1 -69 -25 0 -22 4 -24 58 -27 53 -3 57 -5 57 -28 0 -24 -3 -25
-57 -25 -57 0 -58 0 -58 -27 0 -28 1 -28 61 -28 64 0 99 -12 99 -34 0 -21 -23
-26 -115 -26 -114 0 -115 2 -115 144 0 74 4 116 12 124 8 8 47 12 110 12 79 0
100 -3 104 -15z m420 -4 c73 -33 95 -139 42 -206 -30 -39 -77 -55 -157 -55
l-70 0 -3 130 c-2 72 -1 135 0 140 6 18 144 11 188 -9z m362 -5 c6 -27 -15
-36 -91 -36 -65 0 -68 -1 -65 -22 3 -20 10 -24 63 -28 56 -5 60 -7 60 -30 0
-24 -3 -25 -58 -25 -57 0 -57 0 -57 -30 l0 -31 73 -2 c78 -4 97 -12 77 -37
-16 -19 -189 -22 -208 -3 -13 13 -18 249 -5 262 4 4 52 5 107 4 89 -3 101 -5
104 -22z m359 -57 l58 -81 3 58 c4 94 8 106 40 102 l27 -3 0 -135 0 -135 -26
-3 c-23 -3 -35 8 -85 77 -33 44 -62 80 -66 81 -4 0 -8 -35 -10 -77 -3 -76 -4
-78 -28 -78 l-25 0 -3 138 -3 137 30 0 c26 0 38 -11 88 -81z m288 -44 c8 -135
2 -159 -39 -153 -20 3 -21 10 -24 141 l-3 137 30 0 29 0 7 -125z m164 20 c19
-54 36 -95 38 -90 3 6 19 51 36 100 31 86 33 90 62 90 37 0 37 -2 -18 -155
l-42 -115 -40 0 -40 0 -47 125 c-26 69 -48 131 -48 138 0 9 11 12 33 10 31 -3
33 -6 66 -103z m449 81 c6 -27 -15 -36 -90 -36 -66 0 -68 -1 -68 -25 0 -24 3
-25 60 -25 45 0 62 -4 66 -15 11 -28 -16 -45 -72 -45 -51 0 -54 -1 -54 -25 0
-24 2 -25 68 -25 75 0 96 -9 90 -36 -3 -17 -15 -19 -103 -22 -85 -2 -102 0
-112 15 -18 23 -18 234 -1 251 9 9 43 12 113 10 88 -3 100 -5 103 -22z m140
-88 l3 -108 62 0 c70 0 91 -9 85 -36 -3 -17 -14 -19 -97 -22 -60 -2 -98 1
-107 9 -11 9 -14 41 -14 134 0 67 3 125 7 129 4 4 19 6 33 4 25 -3 25 -4 28
-110z m612 88 c0 -24 -21 -36 -67 -36 -22 0 -23 -3 -23 -104 0 -63 -4 -107
-11 -111 -5 -4 -21 -4 -35 -1 -24 6 -24 8 -24 111 l0 105 -29 0 c-16 0 -36 3
-45 6 -16 6 -22 35 -9 47 3 4 60 7 125 7 118 0 118 0 118 -24z m120 -58 c0
-46 6 -94 13 -107 16 -31 48 -42 78 -27 22 11 24 18 29 111 l5 100 30 0 30 0
0 -108 0 -109 -33 -29 c-27 -24 -41 -29 -83 -29 -59 0 -101 19 -116 53 -9 20
-17 147 -14 215 1 7 14 12 31 12 l30 0 0 -82z m595 -41 c0 -113 -1 -120 -24
-138 -29 -23 -118 -26 -147 -5 -15 12 -17 18 -8 33 7 10 20 16 30 15 11 -2 33
-5 49 -5 l30 -2 3 113 3 113 32 -3 32 -3 0 -118z m146 116 c0 -5 2 -48 4 -98
3 -78 7 -92 26 -107 27 -23 41 -23 70 1 21 17 24 28 25 107 2 49 3 92 3 97 1
4 15 7 31 7 l30 0 0 -100 c0 -54 -5 -110 -11 -123 -16 -36 -60 -57 -119 -57
-46 0 -56 4 -86 34 l-34 34 0 99 c0 55 3 103 7 106 9 9 53 9 54 0z m494 -3 c3
-6 3 -19 0 -30 -6 -18 -15 -20 -81 -20 -72 0 -74 -1 -74 -25 0 -23 4 -24 63
-27 59 -3 62 -4 62 -28 0 -24 -2 -25 -63 -25 l-63 0 3 -30 3 -30 65 3 c72 4
106 -11 94 -41 -5 -15 -21 -17 -108 -17 -66 0 -106 4 -114 12 -13 13 -18 249
-5 261 11 11 211 8 218 -3z m299 4 c9 -3 16 -14 16 -25 0 -23 -31 -41 -51 -28
-7 5 -29 9 -47 9 -75 0 -112 -101 -57 -156 20 -20 34 -25 63 -22 32 3 37 7 40
30 3 21 -1 27 -20 30 -15 2 -24 11 -26 26 -3 21 0 22 57 22 l61 0 0 -58 c0
-83 -17 -97 -121 -97 -75 0 -80 1 -111 32 -27 27 -32 41 -36 90 -3 49 0 64 20
93 13 19 35 40 48 47 26 13 136 18 164 7z m324 -14 c36 -22 62 -72 62 -120 0
-48 -26 -98 -62 -120 -26 -17 -45 -20 -92 -17 -53 3 -62 7 -92 40 -31 33 -34
43 -34 94 1 66 14 96 56 124 40 26 118 25 162 -1z m-6230 -91 c5 -82 24 -79
-412 -79 -284 0 -385 3 -394 12 -13 13 -17 100 -5 111 4 4 187 6 407 5 l401
-3 3 -46z m7370 -2 c2 -27 -2 -55 -9 -63 -9 -12 -75 -14 -391 -14 -242 0 -386
4 -399 10 -15 8 -19 21 -19 59 0 26 3 51 7 54 4 4 187 6 407 5 l401 -3 3 -48z"/>
<path d="M5076 6520 c-41 -13 -85 -58 -98 -101 -9 -32 -8 -44 10 -81 27 -54
66 -78 127 -78 114 0 181 114 120 206 -28 44 -106 70 -159 54z"/>
<path d="M5070 6076 l0 -125 -42 -4 c-24 -2 18 -3 92 -3 74 0 114 1 88 3 l-48
4 0 125 0 124 -45 0 -45 0 0 -124z"/>
<path d="M2705 6440 c-583 -3 -1060 -8 -1060 -12 0 -18 50 -70 92 -95 l48 -28
1004 -5 1003 -5 17 -42 c37 -95 131 -172 210 -173 l34 0 -6 73 c-8 92 -28 141
-80 195 -23 23 -37 42 -31 42 5 0 16 -6 24 -12 12 -11 12 -10 0 5 -7 10 -19
16 -26 13 -8 -3 -33 4 -56 14 -24 11 -54 20 -68 20 -15 0 -30 3 -35 8 -6 4
-487 5 -1070 2z"/>
<path d="M2130 6152 c0 -4 14 -24 30 -44 17 -20 26 -39 20 -41 -6 -3 -5 -4 2
-3 7 2 34 -8 59 -21 l47 -23 670 0 670 0 22 -35 c12 -19 19 -39 16 -44 -4 -5
-1 -13 5 -17 8 -5 10 -2 5 7 -4 8 3 1 16 -16 13 -16 23 -34 23 -40 1 -5 7 -9
14 -7 7 1 26 -9 42 -23 36 -29 108 -51 202 -61 l67 -6 0 80 0 80 -47 7 c-27 4
-69 15 -95 25 -54 20 -129 76 -125 93 1 6 -4 11 -11 12 -7 0 -23 18 -35 40
l-23 40 -787 3 c-433 1 -787 -1 -787 -6z"/>
<path d="M2598 5878 c-13 -3 -16 -7 -8 -7 8 -1 24 -16 35 -33 11 -18 40 -46
63 -63 l44 -30 366 -3 c372 -3 390 -5 377 -39 -2 -7 -1 -12 4 -10 14 4 63 -62
55 -74 -4 -8 -3 -9 4 -5 6 4 21 -3 32 -14 11 -11 48 -35 82 -53 61 -32 63 -32
227 -35 l166 -4 -1 69 -2 68 -93 6 c-96 6 -179 25 -179 41 0 5 -4 7 -9 4 -23
-15 -157 101 -183 159 l-11 25 -473 2 c-260 2 -483 0 -496 -4z"/>
<path d="M6435 6430 c-28 -4 -65 -15 -83 -24 -17 -9 -34 -15 -36 -14 -6 5 -77
-85 -97 -124 -11 -21 -22 -70 -26 -113 l-6 -75 35 0 c49 0 133 45 170 91 24
29 34 36 41 27 6 -9 7 -8 3 4 -2 9 2 35 11 57 l16 41 977 0 c875 0 981 2 1024
16 52 18 126 81 126 108 0 15 -75 16 -1052 15 -579 -1 -1076 -5 -1103 -9z"/>
<path d="M6537 6140 c-3 -13 -11 -18 -26 -15 -12 2 -19 0 -16 -6 4 -5 11 -7
16 -4 5 4 9 2 9 -3 0 -13 -35 -43 -42 -36 -3 3 -9 0 -14 -7 -4 -8 -3 -10 4 -5
7 4 12 4 12 -1 0 -4 -21 -23 -46 -42 -53 -40 -133 -70 -186 -71 -62 0 -64 -2
-58 -88 l5 -77 65 2 c150 5 239 56 319 181 l33 52 669 0 c582 0 675 2 707 15
41 18 122 92 122 112 0 11 -150 13 -784 13 -770 0 -784 0 -789 -20z"/>
<path d="M7640 5890 c-9 -6 -201 -10 -490 -10 l-476 0 -16 -27 c-30 -51 -120
-131 -174 -157 -72 -34 -124 -45 -212 -46 -85 0 -91 -7 -82 -93 l5 -52 75 -3
c107 -4 234 14 294 41 65 31 139 96 172 153 l26 44 364 0 c341 0 367 1 402 19
48 25 96 70 116 109 18 35 18 36 -4 22z"/>
<path d="M4895 5610 c-82 -4 -181 -9 -218 -11 -61 -3 -97 -13 -64 -17 110 -16
106 -19 -26 -21 -132 -1 -138 -2 -146 -23 -5 -15 -3 -27 8 -40 14 -17 47 -17
671 -11 458 4 657 9 662 17 10 14 6 76 -4 76 -4 0 -8 -4 -8 -10 0 -6 -115 -9
-327 -8 -269 1 -303 3 -188 9 245 12 239 11 160 19 -38 4 -140 9 -225 10 -104
2 -140 5 -110 10 l45 7 -40 0 c-22 0 -107 -3 -190 -7z"/>
<path d="M3590 3850 l0 -80 44 0 c36 0 48 5 65 26 12 15 21 39 21 54 0 15 -9
39 -21 54 -17 21 -29 26 -65 26 l-44 0 0 -80z"/>
<path d="M7945 3918 c-39 -34 -40 -101 -1 -135 35 -30 61 -29 91 2 18 17 25
35 25 63 0 75 -64 113 -115 70z"/>
</g>
</svg>
